<?xml version="1.0" encoding="UTF-8"?>
<!DOCTYPE svg PUBLIC "-//W3C//DTD SVG 1.1//EN" "http://www.w3.org/Graphics/SVG/1.1/DTD/svg11.dtd">
<!-- Creator: CorelDRAW -->
<svg xmlns="http://www.w3.org/2000/svg" xml:space="preserve" width="8.5in" height="11in" version="1.1" style="shape-rendering:geometricPrecision; text-rendering:geometricPrecision; image-rendering:optimizeQuality; fill-rule:evenodd; clip-rule:evenodd"
viewBox="0 0 8500 11000"
 xmlns:xlink="http://www.w3.org/1999/xlink">
 <defs>
  <style type="text/css">
   <![CDATA[
    .fil0 {fill:#2FCDCF;fill-rule:nonzero}
   ]]>
  </style>
 </defs>
 <g id="Layer_x0020_1">
  <metadata id="CorelCorpID_0Corel-Layer"/>
  <g id="logo_x0020_blu.cdr">
   <path class="fil0" d="M1806 4596c-778,0 -1241,495 -1292,541 -51,47 -144,51 -144,-57l0 -1819 -1203 0 0 4453c787,0 909,-792 1099,-792 190,0 352,817 1465,817 1114,0 1561,-650 1561,-1636 0,-986 -709,-1507 -1486,-1507zm-426 2201l0 0c-470,0 -822,-238 -822,-635 0,-397 352,-636 822,-636 470,0 821,220 821,636 0,415 -351,635 -821,635z"/>
   <polygon class="fil0" points="4926,3261 3750,3261 3750,7739 4926,7739 "/>
   <path class="fil0" d="M5403 4630l1194 0c0,0 0,737 0,1371 0,634 219,852 663,852 445,0 865,-389 865,-1148 0,-760 0,-1075 0,-1075l1208 0 0 3088c0,0 -402,83 -725,-355 -323,-437 -341,-531 -535,-299 -195,233 -493,675 -1448,675 -955,0 -1222,-460 -1222,-1822l0 -1287z"/>
  </g>
 </g>
</svg>
